<svg xmlns="http://www.w3.org/2000/svg" xmlns:xlink="http://www.w3.org/1999/xlink" width="400" zoomAndPan="magnify" viewBox="0 0 300 74.999997" height="100" preserveAspectRatio="xMidYMid meet" version="1.0"><defs><g/></defs><g fill="#7ed957" fill-opacity="1"><g transform="translate(0.52735, 63.621749)"><g><path d="M 14.734375 0 L 4.3125 0 L 4.3125 -37.46875 L 14.734375 -37.46875 Z M 9.515625 -42.59375 C 7.898438 -42.59375 6.539062 -43.144531 5.4375 -44.25 C 4.332031 -45.363281 3.78125 -46.726562 3.78125 -48.34375 C 3.78125 -49.945312 4.332031 -51.316406 5.4375 -52.453125 C 6.539062 -53.585938 7.898438 -54.15625 9.515625 -54.15625 C 11.128906 -54.15625 12.488281 -53.585938 13.59375 -52.453125 C 14.695312 -51.316406 15.25 -49.945312 15.25 -48.34375 C 15.25 -46.726562 14.695312 -45.363281 13.59375 -44.25 C 12.488281 -43.144531 11.128906 -42.59375 9.515625 -42.59375 Z M 9.515625 -42.59375 "/></g></g></g><g fill="#7ed957" fill-opacity="1"><g transform="translate(19.635789, 63.621749)"><g><path d="M 22.890625 -37.46875 C 24.296875 -37.46875 25.851562 -37.265625 27.5625 -36.859375 C 29.28125 -36.453125 30.894531 -35.695312 32.40625 -34.59375 C 33.914062 -33.488281 35.1875 -31.953125 36.21875 -29.984375 C 37.25 -28.023438 37.765625 -25.484375 37.765625 -22.359375 L 37.765625 0 L 27.265625 0 L 27.265625 -21.984375 C 27.265625 -23.140625 27.078125 -24.117188 26.703125 -24.921875 C 26.328125 -25.734375 25.820312 -26.375 25.1875 -26.84375 C 24.5625 -27.320312 23.84375 -27.675781 23.03125 -27.90625 C 22.226562 -28.132812 21.425781 -28.25 20.625 -28.25 C 19.96875 -28.25 19.25 -28.132812 18.46875 -27.90625 C 17.6875 -27.675781 16.953125 -27.3125 16.265625 -26.8125 C 15.585938 -26.3125 15.019531 -25.65625 14.5625 -24.84375 C 14.113281 -24.039062 13.890625 -23.085938 13.890625 -21.984375 L 13.890625 0 L 3.46875 0 L 3.46875 -37.46875 L 12.390625 -37.46875 L 13.890625 -34.59375 C 15.097656 -35.445312 16.457031 -36.140625 17.96875 -36.671875 C 19.488281 -37.203125 21.128906 -37.46875 22.890625 -37.46875 Z M 22.890625 -37.46875 "/></g></g></g><g fill="#7ed957" fill-opacity="1"><g transform="translate(60.496125, 63.621749)"><g><path d="M 22.890625 -37.46875 C 24.296875 -37.46875 25.851562 -37.265625 27.5625 -36.859375 C 29.28125 -36.453125 30.894531 -35.695312 32.40625 -34.59375 C 33.914062 -33.488281 35.1875 -31.953125 36.21875 -29.984375 C 37.25 -28.023438 37.765625 -25.484375 37.765625 -22.359375 L 37.765625 0 L 27.265625 0 L 27.265625 -21.984375 C 27.265625 -23.140625 27.078125 -24.117188 26.703125 -24.921875 C 26.328125 -25.734375 25.820312 -26.375 25.1875 -26.84375 C 24.5625 -27.320312 23.84375 -27.675781 23.03125 -27.90625 C 22.226562 -28.132812 21.425781 -28.25 20.625 -28.25 C 19.96875 -28.25 19.25 -28.132812 18.46875 -27.90625 C 17.6875 -27.675781 16.953125 -27.3125 16.265625 -26.8125 C 15.585938 -26.3125 15.019531 -25.65625 14.5625 -24.84375 C 14.113281 -24.039062 13.890625 -23.085938 13.890625 -21.984375 L 13.890625 0 L 3.46875 0 L 3.46875 -37.46875 L 12.390625 -37.46875 L 13.890625 -34.59375 C 15.097656 -35.445312 16.457031 -36.140625 17.96875 -36.671875 C 19.488281 -37.203125 21.128906 -37.46875 22.890625 -37.46875 Z M 22.890625 -37.46875 "/></g></g></g><g fill="#7ed957" fill-opacity="1"><g transform="translate(101.356462, 63.621749)"><g><path d="M 21.828125 -38.515625 C 24.492188 -38.515625 27.007812 -38 29.375 -36.96875 C 31.75 -35.9375 33.816406 -34.523438 35.578125 -32.734375 C 37.335938 -30.953125 38.734375 -28.863281 39.765625 -26.46875 C 40.796875 -24.082031 41.3125 -21.53125 41.3125 -18.8125 C 41.3125 -16.09375 40.796875 -13.535156 39.765625 -11.140625 C 38.734375 -8.742188 37.335938 -6.648438 35.578125 -4.859375 C 33.816406 -3.078125 31.75 -1.671875 29.375 -0.640625 C 27.007812 0.390625 24.492188 0.90625 21.828125 0.90625 C 19.109375 0.90625 16.566406 0.390625 14.203125 -0.640625 C 11.835938 -1.671875 9.769531 -3.078125 8 -4.859375 C 6.238281 -6.648438 4.84375 -8.742188 3.8125 -11.140625 C 2.78125 -13.535156 2.265625 -16.09375 2.265625 -18.8125 C 2.265625 -21.53125 2.78125 -24.082031 3.8125 -26.46875 C 4.84375 -28.863281 6.238281 -30.953125 8 -32.734375 C 9.769531 -34.523438 11.835938 -35.9375 14.203125 -36.96875 C 16.566406 -38 19.109375 -38.515625 21.828125 -38.515625 Z M 21.828125 -8.234375 C 23.085938 -8.234375 24.257812 -8.484375 25.34375 -8.984375 C 26.425781 -9.492188 27.378906 -10.1875 28.203125 -11.0625 C 29.035156 -11.945312 29.691406 -13.003906 30.171875 -14.234375 C 30.648438 -15.472656 30.890625 -16.847656 30.890625 -18.359375 C 30.890625 -19.867188 30.648438 -21.273438 30.171875 -22.578125 C 29.691406 -23.890625 29.035156 -25.035156 28.203125 -26.015625 C 27.378906 -27.003906 26.425781 -27.785156 25.34375 -28.359375 C 24.257812 -28.941406 23.085938 -29.234375 21.828125 -29.234375 C 20.566406 -29.234375 19.378906 -28.941406 18.265625 -28.359375 C 17.160156 -27.785156 16.191406 -27.003906 15.359375 -26.015625 C 14.535156 -25.035156 13.882812 -23.890625 13.40625 -22.578125 C 12.925781 -21.273438 12.6875 -19.867188 12.6875 -18.359375 C 12.6875 -16.847656 12.925781 -15.472656 13.40625 -14.234375 C 13.882812 -13.003906 14.535156 -11.945312 15.359375 -11.0625 C 16.191406 -10.1875 17.160156 -9.492188 18.265625 -8.984375 C 19.378906 -8.484375 20.566406 -8.234375 21.828125 -8.234375 Z M 21.828125 -8.234375 "/></g></g></g><g fill="#ffffff" fill-opacity="1"><g transform="translate(145.4599, 58.35581)"><g><path d="M 27.359375 -22.734375 C 28.179688 -22.734375 29.066406 -22.59375 30.015625 -22.3125 C 30.960938 -22.039062 31.835938 -21.550781 32.640625 -20.84375 C 33.453125 -20.144531 34.117188 -19.179688 34.640625 -17.953125 C 35.160156 -16.734375 35.421875 -15.179688 35.421875 -13.296875 L 35.421875 0 L 29.09375 0 L 29.09375 -12.140625 C 29.09375 -13.054688 28.992188 -13.832031 28.796875 -14.46875 C 28.597656 -15.113281 28.332031 -15.632812 28 -16.03125 C 27.664062 -16.4375 27.273438 -16.722656 26.828125 -16.890625 C 26.390625 -17.054688 25.941406 -17.140625 25.484375 -17.140625 C 25.054688 -17.140625 24.628906 -17.0625 24.203125 -16.90625 C 23.773438 -16.757812 23.390625 -16.5 23.046875 -16.125 C 22.710938 -15.757812 22.445312 -15.253906 22.25 -14.609375 C 22.050781 -13.972656 21.953125 -13.164062 21.953125 -12.1875 L 21.953125 0 L 15.625 0 L 15.625 -12.140625 C 15.625 -14.003906 15.300781 -15.300781 14.65625 -16.03125 C 14.019531 -16.769531 13.09375 -17.140625 11.875 -17.140625 C 10.988281 -17.140625 10.191406 -16.726562 9.484375 -15.90625 C 8.785156 -15.082031 8.4375 -13.796875 8.4375 -12.046875 L 8.4375 0 L 2.109375 0 L 2.109375 -22.734375 L 7.515625 -22.734375 L 8.4375 -20.625 C 9.132812 -21.289062 9.945312 -21.804688 10.875 -22.171875 C 11.8125 -22.546875 12.816406 -22.734375 13.890625 -22.734375 C 14.429688 -22.734375 15.007812 -22.675781 15.625 -22.5625 C 16.238281 -22.457031 16.832031 -22.265625 17.40625 -21.984375 C 17.988281 -21.710938 18.546875 -21.351562 19.078125 -20.90625 C 19.617188 -20.46875 20.101562 -19.914062 20.53125 -19.25 C 20.894531 -19.832031 21.335938 -20.34375 21.859375 -20.78125 C 22.378906 -21.226562 22.941406 -21.59375 23.546875 -21.875 C 24.160156 -22.164062 24.796875 -22.378906 25.453125 -22.515625 C 26.109375 -22.660156 26.742188 -22.734375 27.359375 -22.734375 Z M 27.359375 -22.734375 "/></g></g></g><g fill="#ffffff" fill-opacity="1"><g transform="translate(182.849313, 58.35581)"><g><path d="M 25.84375 -22.734375 L 25.84375 0 L 20.390625 0 L 19.75 -2.421875 C 18.863281 -1.234375 17.800781 -0.441406 16.5625 -0.046875 C 15.320312 0.347656 14.03125 0.546875 12.6875 0.546875 C 11.070312 0.546875 9.582031 0.234375 8.21875 -0.390625 C 6.863281 -1.015625 5.679688 -1.867188 4.671875 -2.953125 C 3.660156 -4.035156 2.875 -5.300781 2.3125 -6.75 C 1.75 -8.207031 1.46875 -9.757812 1.46875 -11.40625 C 1.46875 -13.0625 1.75 -14.613281 2.3125 -16.0625 C 2.875 -17.507812 3.660156 -18.773438 4.671875 -19.859375 C 5.679688 -20.953125 6.863281 -21.8125 8.21875 -22.4375 C 9.582031 -23.0625 11.070312 -23.375 12.6875 -23.375 C 14.15625 -23.375 15.5 -23.144531 16.71875 -22.6875 C 17.945312 -22.226562 18.957031 -21.492188 19.75 -20.484375 L 20.390625 -22.734375 Z M 19.515625 -11.3125 C 19.515625 -12.507812 19.351562 -13.507812 19.03125 -14.3125 C 18.71875 -15.125 18.289062 -15.78125 17.75 -16.28125 C 17.21875 -16.789062 16.59375 -17.160156 15.875 -17.390625 C 15.15625 -17.617188 14.382812 -17.734375 13.5625 -17.734375 C 12.738281 -17.734375 11.96875 -17.566406 11.25 -17.234375 C 10.53125 -16.898438 9.894531 -16.445312 9.34375 -15.875 C 8.800781 -15.3125 8.375 -14.640625 8.0625 -13.859375 C 7.757812 -13.078125 7.609375 -12.257812 7.609375 -11.40625 C 7.609375 -10.519531 7.757812 -9.695312 8.0625 -8.9375 C 8.375 -8.175781 8.800781 -7.507812 9.34375 -6.9375 C 9.894531 -6.375 10.53125 -5.925781 11.25 -5.59375 C 11.96875 -5.257812 12.738281 -5.09375 13.5625 -5.09375 C 15.21875 -5.09375 16.617188 -5.601562 17.765625 -6.625 C 18.910156 -7.644531 19.492188 -9.207031 19.515625 -11.3125 Z M 19.515625 -11.3125 "/></g></g></g><g fill="#ffffff" fill-opacity="1"><g transform="translate(210.708087, 58.35581)"><g><path d="M 8.296875 -19.5625 C 8.597656 -20.050781 8.945312 -20.515625 9.34375 -20.953125 C 9.738281 -21.398438 10.210938 -21.800781 10.765625 -22.15625 C 11.316406 -22.507812 11.941406 -22.789062 12.640625 -23 C 13.347656 -23.21875 14.144531 -23.328125 15.03125 -23.328125 C 16.070312 -23.328125 17.28125 -23.144531 18.65625 -22.78125 L 18.0625 -17.140625 C 17.71875 -17.203125 17.378906 -17.28125 17.046875 -17.375 C 16.773438 -17.425781 16.46875 -17.472656 16.125 -17.515625 C 15.789062 -17.566406 15.488281 -17.59375 15.21875 -17.59375 C 14.238281 -17.59375 13.328125 -17.453125 12.484375 -17.171875 C 11.648438 -16.898438 10.925781 -16.519531 10.3125 -16.03125 C 9.695312 -15.550781 9.207031 -14.96875 8.84375 -14.28125 C 8.476562 -13.59375 8.296875 -12.847656 8.296875 -12.046875 L 8.296875 0 L 1.96875 0 L 1.96875 -22.734375 L 7.703125 -22.734375 Z M 8.296875 -19.5625 "/></g></g></g><g fill="#ffffff" fill-opacity="1"><g transform="translate(229.586076, 58.35581)"><g><path d="M 14.671875 -13.296875 L 24.25 0 L 16.6875 0 L 10.671875 -9.078125 L 8.4375 -6.640625 L 8.4375 0 L 2.109375 0 L 2.109375 -33.453125 L 8.4375 -33.453125 L 8.4375 -14.890625 L 15.8125 -22.734375 L 23.515625 -22.734375 Z M 14.671875 -13.296875 "/></g></g></g><g fill="#ffffff" fill-opacity="1"><g transform="translate(254.145782, 58.35581)"><g><path d="M 13.296875 -23.375 C 15.003906 -23.375 16.5625 -23.03125 17.96875 -22.34375 C 19.375 -21.65625 20.578125 -20.753906 21.578125 -19.640625 C 22.585938 -18.523438 23.367188 -17.238281 23.921875 -15.78125 C 24.472656 -14.332031 24.75 -12.84375 24.75 -11.3125 C 24.75 -10.394531 24.625 -9.421875 24.375 -8.390625 L 8.15625 -8.390625 C 8.769531 -7.347656 9.640625 -6.46875 10.765625 -5.75 C 11.898438 -5.03125 13.125 -4.671875 14.4375 -4.671875 C 15.75 -4.671875 16.898438 -4.773438 17.890625 -4.984375 C 18.890625 -5.203125 19.832031 -5.476562 20.71875 -5.8125 L 22.828125 -1.921875 C 21.691406 -1.128906 20.394531 -0.519531 18.9375 -0.09375 C 17.488281 0.332031 15.941406 0.546875 14.296875 0.546875 C 12.492188 0.546875 10.8125 0.234375 9.25 -0.390625 C 7.695312 -1.015625 6.335938 -1.859375 5.171875 -2.921875 C 4.015625 -3.992188 3.097656 -5.265625 2.421875 -6.734375 C 1.753906 -8.203125 1.421875 -9.757812 1.421875 -11.40625 C 1.421875 -13.03125 1.722656 -14.566406 2.328125 -16.015625 C 2.941406 -17.460938 3.789062 -18.726562 4.875 -19.8125 C 5.957031 -20.90625 7.21875 -21.769531 8.65625 -22.40625 C 10.09375 -23.050781 11.640625 -23.375 13.296875 -23.375 Z M 18.46875 -13.296875 C 18.101562 -14.609375 17.445312 -15.675781 16.5 -16.5 C 15.550781 -17.320312 14.484375 -17.734375 13.296875 -17.734375 C 12.066406 -17.734375 10.957031 -17.320312 9.96875 -16.5 C 8.976562 -15.675781 8.296875 -14.609375 7.921875 -13.296875 Z M 18.46875 -13.296875 "/></g></g></g><g fill="#ffffff" fill-opacity="1"><g transform="translate(281.408891, 58.35581)"><g><path d="M 10.453125 -8.15625 C 10.453125 -7.082031 10.78125 -6.253906 11.4375 -5.671875 C 12.09375 -5.097656 12.953125 -4.8125 14.015625 -4.8125 C 14.878906 -4.8125 15.738281 -4.976562 16.59375 -5.3125 L 16.59375 0 C 15.820312 0.238281 15.007812 0.441406 14.15625 0.609375 C 13.300781 0.785156 12.445312 0.875 11.59375 0.875 C 10.613281 0.875 9.679688 0.75 8.796875 0.5 C 7.910156 0.257812 7.113281 -0.15625 6.40625 -0.75 C 5.707031 -1.351562 5.148438 -2.148438 4.734375 -3.140625 C 4.328125 -4.128906 4.125 -5.359375 4.125 -6.828125 L 4.125 -17.09375 L 0.875 -17.09375 L 0.875 -21.359375 L 4.125 -22.734375 L 4.125 -27.8125 L 10.453125 -27.8125 L 10.453125 -22.734375 L 16.59375 -22.734375 L 16.59375 -17.09375 L 10.453125 -17.09375 Z M 10.453125 -8.15625 "/></g></g></g><path stroke-linecap="butt" transform="matrix(0.75, 0, 0, 0.75, 168.436031, 64.499994)" fill="none" stroke-linejoin="miter" d="M 0.00195807 2.000009 L 152.00197 2.000009 " stroke="#ffffff" stroke-width="4" stroke-opacity="1" stroke-miterlimit="4"/></svg>