<svg xmlns="http://www.w3.org/2000/svg" xmlns:xlink="http://www.w3.org/1999/xlink" width="400" zoomAndPan="magnify" viewBox="0 0 300 42.75" height="57" preserveAspectRatio="xMidYMid meet" version="1.0"><defs><g/></defs><g fill="#7ed957" fill-opacity="1"><g transform="translate(3.293636, 38.400437)"><g><path d="M 3.625 0 L 3.625 -26.40625 L 11.1875 -26.40625 L 11.1875 0 Z M 7.40625 -38.140625 C 8.613281 -38.140625 9.601562 -37.742188 10.375 -36.953125 C 11.144531 -36.171875 11.53125 -35.15625 11.53125 -33.90625 C 11.53125 -32.664062 11.144531 -31.648438 10.375 -30.859375 C 9.601562 -30.078125 8.613281 -29.6875 7.40625 -29.6875 C 6.226562 -29.6875 5.253906 -30.085938 4.484375 -30.890625 C 3.722656 -31.691406 3.34375 -32.695312 3.34375 -33.90625 C 3.34375 -35.15625 3.722656 -36.171875 4.484375 -36.953125 C 5.253906 -37.742188 6.226562 -38.140625 7.40625 -38.140625 Z M 7.40625 -38.140625 "/></g></g></g><g fill="#7ed957" fill-opacity="1"><g transform="translate(18.109979, 38.400437)"><g><path d="M 20.3125 -26.703125 C 23.257812 -26.703125 25.609375 -25.785156 27.359375 -23.953125 C 29.109375 -22.117188 29.984375 -19.664062 29.984375 -16.59375 L 29.984375 0 L 22.421875 0 L 22.421875 -14.375 C 22.421875 -16.050781 21.953125 -17.367188 21.015625 -18.328125 C 20.085938 -19.296875 18.820312 -19.78125 17.21875 -19.78125 C 15.351562 -19.75 13.878906 -19.101562 12.796875 -17.84375 C 11.722656 -16.582031 11.1875 -14.96875 11.1875 -13 L 11.1875 0 L 3.625 0 L 3.625 -26.40625 L 11.1875 -26.40625 L 11.1875 -21.796875 C 13.019531 -24.992188 16.0625 -26.628906 20.3125 -26.703125 Z M 20.3125 -26.703125 "/></g></g></g><g fill="#7ed957" fill-opacity="1"><g transform="translate(50.980671, 38.400437)"><g><path d="M 20.3125 -26.703125 C 23.257812 -26.703125 25.609375 -25.785156 27.359375 -23.953125 C 29.109375 -22.117188 29.984375 -19.664062 29.984375 -16.59375 L 29.984375 0 L 22.421875 0 L 22.421875 -14.375 C 22.421875 -16.050781 21.953125 -17.367188 21.015625 -18.328125 C 20.085938 -19.296875 18.820312 -19.78125 17.21875 -19.78125 C 15.351562 -19.75 13.878906 -19.101562 12.796875 -17.84375 C 11.722656 -16.582031 11.1875 -14.96875 11.1875 -13 L 11.1875 0 L 3.625 0 L 3.625 -26.40625 L 11.1875 -26.40625 L 11.1875 -21.796875 C 13.019531 -24.992188 16.0625 -26.628906 20.3125 -26.703125 Z M 20.3125 -26.703125 "/></g></g></g><g fill="#7ed957" fill-opacity="1"><g transform="translate(83.851363, 38.400437)"><g><path d="M 15.5625 -26.65625 C 18.34375 -26.65625 20.800781 -26.097656 22.9375 -24.984375 C 25.082031 -23.867188 26.742188 -22.296875 27.921875 -20.265625 C 29.097656 -18.234375 29.6875 -15.878906 29.6875 -13.203125 C 29.6875 -10.554688 29.097656 -8.207031 27.921875 -6.15625 C 26.742188 -4.113281 25.082031 -2.523438 22.9375 -1.390625 C 20.800781 -0.265625 18.34375 0.296875 15.5625 0.296875 C 12.75 0.296875 10.269531 -0.265625 8.125 -1.390625 C 5.976562 -2.523438 4.316406 -4.113281 3.140625 -6.15625 C 1.960938 -8.207031 1.375 -10.554688 1.375 -13.203125 C 1.375 -15.878906 1.960938 -18.234375 3.140625 -20.265625 C 4.316406 -22.296875 5.976562 -23.867188 8.125 -24.984375 C 10.269531 -26.097656 12.75 -26.65625 15.5625 -26.65625 Z M 15.5625 -20.375 C 13.59375 -20.375 11.992188 -19.703125 10.765625 -18.359375 C 9.546875 -17.015625 8.9375 -15.265625 8.9375 -13.109375 C 8.9375 -10.941406 9.546875 -9.1875 10.765625 -7.84375 C 11.992188 -6.507812 13.59375 -5.84375 15.5625 -5.84375 C 17.488281 -5.84375 19.066406 -6.507812 20.296875 -7.84375 C 21.523438 -9.1875 22.140625 -10.941406 22.140625 -13.109375 C 22.140625 -15.265625 21.523438 -17.015625 20.296875 -18.359375 C 19.066406 -19.703125 17.488281 -20.375 15.5625 -20.375 Z M 15.5625 -20.375 "/></g></g></g><g fill="#ffffff" fill-opacity="1"><g transform="translate(113.265321, 38.400437)"><g><path d="M 38.578125 -26.703125 C 41.484375 -26.703125 43.796875 -25.789062 45.515625 -23.96875 C 47.234375 -22.15625 48.09375 -19.695312 48.09375 -16.59375 L 48.09375 0 L 40.59375 0 L 40.59375 -14.375 C 40.59375 -16.082031 40.132812 -17.410156 39.21875 -18.359375 C 38.300781 -19.304688 37.054688 -19.78125 35.484375 -19.78125 C 33.679688 -19.75 32.253906 -19.109375 31.203125 -17.859375 C 30.160156 -16.617188 29.640625 -15.019531 29.640625 -13.0625 L 29.640625 0 L 22.140625 0 L 22.140625 -14.375 C 22.140625 -16.050781 21.6875 -17.367188 20.78125 -18.328125 C 19.882812 -19.296875 18.648438 -19.78125 17.078125 -19.78125 C 15.273438 -19.75 13.84375 -19.109375 12.78125 -17.859375 C 11.71875 -16.617188 11.1875 -15.019531 11.1875 -13.0625 L 11.1875 0 L 3.625 0 L 3.625 -26.40625 L 11.1875 -26.40625 L 11.1875 -21.84375 C 13.019531 -25.007812 16 -26.628906 20.125 -26.703125 C 22.34375 -26.703125 24.222656 -26.171875 25.765625 -25.109375 C 27.304688 -24.046875 28.398438 -22.546875 29.046875 -20.609375 C 29.898438 -22.609375 31.132812 -24.113281 32.75 -25.125 C 34.375 -26.144531 36.316406 -26.671875 38.578125 -26.703125 Z M 38.578125 -26.703125 "/></g></g></g><g fill="#ffffff" fill-opacity="1"><g transform="translate(164.239422, 38.400437)"><g><path d="M 26.359375 0 L 18.9375 0 L 18.9375 -3.09375 C 18.0625 -1.976562 16.914062 -1.125 15.5 -0.53125 C 14.09375 0.0507812 12.476562 0.34375 10.65625 0.34375 C 7.875 0.34375 5.664062 -0.414062 4.03125 -1.9375 C 2.394531 -3.457031 1.578125 -5.445312 1.578125 -7.90625 C 1.578125 -10.382812 2.453125 -12.316406 4.203125 -13.703125 C 5.953125 -15.097656 8.425781 -15.816406 11.625 -15.859375 L 18.890625 -15.859375 L 18.890625 -16.34375 C 18.890625 -17.75 18.421875 -18.835938 17.484375 -19.609375 C 16.554688 -20.378906 15.191406 -20.765625 13.390625 -20.765625 C 10.941406 -20.765625 8.328125 -19.992188 5.546875 -18.453125 L 3.1875 -23.65625 C 5.28125 -24.695312 7.242188 -25.460938 9.078125 -25.953125 C 10.910156 -26.453125 12.921875 -26.703125 15.109375 -26.703125 C 18.648438 -26.703125 21.390625 -25.863281 23.328125 -24.1875 C 25.273438 -22.519531 26.269531 -20.195312 26.3125 -17.21875 Z M 12.765625 -5.0625 C 14.328125 -5.0625 15.679688 -5.4375 16.828125 -6.1875 C 17.972656 -6.9375 18.660156 -7.882812 18.890625 -9.03125 L 18.890625 -11.390625 L 12.953125 -11.390625 C 11.484375 -11.390625 10.394531 -11.148438 9.6875 -10.671875 C 8.988281 -10.203125 8.640625 -9.441406 8.640625 -8.390625 C 8.640625 -7.378906 9.003906 -6.570312 9.734375 -5.96875 C 10.472656 -5.363281 11.484375 -5.0625 12.765625 -5.0625 Z M 12.765625 -5.0625 "/></g></g></g><g fill="#ffffff" fill-opacity="1"><g transform="translate(193.479616, 38.400437)"><g><path d="M 11.1875 -21.640625 C 12.101562 -23.273438 13.296875 -24.519531 14.765625 -25.375 C 16.242188 -26.226562 17.960938 -26.671875 19.921875 -26.703125 L 19.921875 -19.578125 C 19.660156 -19.609375 19.269531 -19.625 18.75 -19.625 C 16.425781 -19.625 14.582031 -18.992188 13.21875 -17.734375 C 11.863281 -16.484375 11.1875 -14.8125 11.1875 -12.71875 L 11.1875 0 L 3.625 0 L 3.625 -26.40625 L 11.1875 -26.40625 Z M 11.1875 -21.640625 "/></g></g></g><g fill="#ffffff" fill-opacity="1"><g transform="translate(213.88888, 38.400437)"><g><path d="M 30.140625 0 L 21.203125 0 L 14.828125 -10.75 L 11.4375 -7.171875 L 11.4375 0 L 3.875 0 L 3.875 -36.421875 L 11.4375 -36.421875 L 11.4375 -16.390625 L 21.109375 -26.359375 L 29.6875 -26.359375 L 20.03125 -16.203125 Z M 30.140625 0 "/></g></g></g><g fill="#ffffff" fill-opacity="1"><g transform="translate(244.257477, 38.400437)"><g><path d="M 14.96875 -26.65625 C 19.21875 -26.65625 22.445312 -25.425781 24.65625 -22.96875 C 26.863281 -20.507812 27.96875 -17.09375 27.96875 -12.71875 C 27.96875 -11.925781 27.953125 -11.316406 27.921875 -10.890625 L 8.984375 -10.890625 C 9.410156 -9.222656 10.226562 -7.921875 11.4375 -6.984375 C 12.644531 -6.054688 14.097656 -5.59375 15.796875 -5.59375 C 17.046875 -5.59375 18.242188 -5.828125 19.390625 -6.296875 C 20.535156 -6.773438 21.566406 -7.472656 22.484375 -8.390625 L 26.453125 -4.375 C 25.109375 -2.863281 23.476562 -1.707031 21.5625 -0.90625 C 19.65625 -0.101562 17.523438 0.296875 15.171875 0.296875 C 12.390625 0.296875 9.957031 -0.257812 7.875 -1.375 C 5.800781 -2.488281 4.195312 -4.054688 3.0625 -6.078125 C 1.9375 -8.109375 1.375 -10.453125 1.375 -13.109375 C 1.375 -15.785156 1.945312 -18.144531 3.09375 -20.1875 C 4.238281 -22.238281 5.84375 -23.828125 7.90625 -24.953125 C 9.96875 -26.085938 12.320312 -26.65625 14.96875 -26.65625 Z M 20.859375 -15.359375 C 20.796875 -17.097656 20.238281 -18.488281 19.1875 -19.53125 C 18.144531 -20.582031 16.753906 -21.109375 15.015625 -21.109375 C 13.378906 -21.109375 12.015625 -20.59375 10.921875 -19.5625 C 9.828125 -18.53125 9.128906 -17.128906 8.828125 -15.359375 Z M 20.859375 -15.359375 "/></g></g></g><g fill="#ffffff" fill-opacity="1"><g transform="translate(273.546731, 38.400437)"><g><path d="M 19.96875 -1.46875 C 18.988281 -0.882812 17.898438 -0.4375 16.703125 -0.125 C 15.515625 0.1875 14.316406 0.34375 13.109375 0.34375 C 10.648438 0.34375 8.648438 -0.359375 7.109375 -1.765625 C 5.578125 -3.171875 4.8125 -5.179688 4.8125 -7.796875 L 4.8125 -20.03125 L 1.125 -20.03125 L 1.125 -25.21875 L 4.8125 -25.21875 L 4.8125 -32.484375 L 12.3125 -32.484375 L 12.3125 -25.21875 L 19.484375 -25.21875 L 19.484375 -19.96875 L 12.3125 -19.96875 L 12.3125 -9.078125 C 12.3125 -7.046875 13.113281 -6.03125 14.71875 -6.03125 C 15.832031 -6.03125 17.0625 -6.359375 18.40625 -7.015625 Z M 19.96875 -1.46875 "/></g></g></g></svg>